
    <svg xmlns="http://www.w3.org/2000/svg" xmlns:xlink="http://www.w3.org/1999/xlink" x="0px" y="0px"
        width="48px" height="32px" viewBox="0 0 48 32" enable-background="new 0 0 48 32" xml:space="preserve">
        <g>
            <path fill="#008000" d="M23.365,17.494c-0.886-0.313-1.748-0.635-2.588-0.967s-1.585-0.739-2.236-1.221s-1.175-1.077-1.572-1.787
                s-0.596-1.592-0.596-2.646c0-1.016,0.186-1.907,0.557-2.676s0.879-1.423,1.523-1.963s1.396-0.967,2.256-1.279
                s1.777-0.508,2.754-0.586V0.951h1.523V4.33c1.016,0.039,1.947,0.186,2.793,0.439c0.847,0.254,1.572,0.589,2.178,1.006
                s1.078,0.896,1.416,1.436c0.34,0.54,0.508,1.11,0.508,1.709c0,0.403-0.068,0.742-0.205,1.016s-0.314,0.498-0.537,0.674
                c-0.221,0.176-0.465,0.303-0.732,0.381c-0.267,0.078-0.523,0.117-0.771,0.117c-0.313,0-0.599-0.052-0.859-0.156
                c-0.26-0.104-0.484-0.247-0.674-0.43c-0.188-0.183-0.335-0.396-0.439-0.645c-0.104-0.247-0.156-0.515-0.156-0.801
                c0-0.352,0.085-0.729,0.254-1.133c0.17-0.403,0.437-0.774,0.801-1.113c-0.234-0.169-0.498-0.313-0.791-0.43
                s-0.599-0.215-0.918-0.293s-0.638-0.137-0.957-0.176s-0.622-0.065-0.908-0.078v8.242c0.898,0.3,1.784,0.625,2.656,0.977
                c0.873,0.352,1.654,0.781,2.344,1.289c0.69,0.508,1.247,1.119,1.67,1.836c0.424,0.715,0.635,1.594,0.635,2.637
                c0,1.016-0.197,1.916-0.596,2.705c-0.396,0.787-0.934,1.455-1.611,2.002c-0.677,0.547-1.465,0.977-2.363,1.289
                s-1.843,0.514-2.832,0.605v3.613h-1.523v-3.555c-1.12-0.027-2.148-0.184-3.086-0.469c-0.938-0.287-1.745-0.662-2.422-1.123
                c-0.677-0.463-1.204-0.99-1.582-1.582c-0.378-0.594-0.566-1.215-0.566-1.865c0-0.703,0.218-1.297,0.654-1.777
                c0.437-0.482,1.025-0.723,1.768-0.723c0.3,0,0.586,0.045,0.859,0.137c0.273,0.09,0.518,0.23,0.732,0.42
                c0.215,0.188,0.388,0.43,0.518,0.723s0.195,0.635,0.195,1.025c0,0.455-0.095,0.885-0.283,1.289
                c-0.188,0.402-0.491,0.754-0.908,1.055c0.599,0.494,1.27,0.84,2.012,1.035s1.445,0.305,2.109,0.332V17.494z M19.498,9.779
                c0,0.534,0.078,0.993,0.234,1.377s0.397,0.72,0.723,1.006s0.735,0.547,1.23,0.781s1.087,0.476,1.777,0.723V5.893
                c-0.547,0.065-1.058,0.183-1.533,0.352s-0.896,0.41-1.26,0.723s-0.651,0.7-0.859,1.162S19.498,9.142,19.498,9.779z M28.775,21.986
                c0-0.535-0.081-1-0.244-1.396c-0.162-0.398-0.403-0.75-0.723-1.055c-0.318-0.307-0.723-0.586-1.211-0.84s-1.058-0.498-1.709-0.732
                v7.949c0.534-0.066,1.038-0.189,1.514-0.371c0.476-0.184,0.889-0.434,1.24-0.752c0.352-0.32,0.629-0.711,0.83-1.172
                C28.675,23.154,28.775,22.611,28.775,21.986z"/>
        </g>
    </svg>
